<svg width="16" height="26" viewBox="0 0 16 26" fill="none" xmlns="http://www.w3.org/2000/svg">
<path d="M14.1336 16.5345L14.9037 17.3046C15.2297 17.6306 15.2297 18.1579 14.9037 18.4805L8.16381 25.2238C7.83774 25.5499 7.31049 25.5499 6.98789 25.2238L0.24455 18.4805C-0.0815167 18.1544 -0.0815167 17.6272 0.24455 17.3046L1.01462 16.5345C1.34416 16.2049 1.88182 16.2119 2.20442 16.5484L6.1866 20.7283V1.52361C6.1866 1.06226 6.55776 0.691101 7.01911 0.691101H8.12912C8.59047 0.691101 8.96163 1.06226 8.96163 1.52361V20.7283L12.9438 16.5484C13.2664 16.2084 13.8041 16.2015 14.1336 16.5345Z" fill="#FFEEEE"/>
</svg>
